HIERARCHY
ROOT Hips
{
	OFFSET -0.001795 -0.223333 0.028219
	CHANNELS 6 Xposition Yposition Zposition Zrotation Yrotation Xrotation 
	JOINT LeftUpLeg
	{
		OFFSET 0.069520 -0.091406 -0.006815
		CHANNELS 3 Zrotation Yrotation Xrotation
		JOINT LeftLeg
		{
			OFFSET 0.034277 -0.375199 -0.004496
			CHANNELS 3 Zrotation Yrotation Xrotation
			JOINT LeftFoot
			{
				OFFSET -0.013596 -0.397961 -0.043693
				CHANNELS 3 Zrotation Yrotation Xrotation
				JOINT LeftToe
				{
					OFFSET 0.026358 -0.055791 0.119288
					CHANNELS 3 Zrotation Yrotation Xrotation
					End Site
					{
						OFFSET 0.000000 0.000000 0.000000
					}
				}
			}
		}
	}
	JOINT RightUpLeg
	{
		OFFSET -0.067670 -0.090522 -0.004320
		CHANNELS 3 Zrotation Yrotation Xrotation
		JOINT RightLeg
		{
			OFFSET -0.038290 -0.382569 -0.008850
			CHANNELS 3 Zrotation Yrotation Xrotation
			JOINT RightFoot
			{
				OFFSET 0.015774 -0.398415 -0.042312
				CHANNELS 3 Zrotation Yrotation Xrotation
				JOINT RightToe
				{
					OFFSET -0.025372 -0.048144 0.123348
					CHANNELS 3 Zrotation Yrotation Xrotation
					End Site
					{
						OFFSET 0.000000 0.000000 0.000000
					}
				}
			}
		}
	}
	JOINT Spine
	{
		OFFSET -0.002533 0.108963 -0.026696
		CHANNELS 3 Zrotation Yrotation Xrotation
		JOINT Spine1
		{
			OFFSET 0.005487 0.135180 0.001092
			CHANNELS 3 Zrotation Yrotation Xrotation
			JOINT Spine2
			{
				OFFSET 0.001457 0.052922 0.025425
				CHANNELS 3 Zrotation Yrotation Xrotation
				JOINT Neck
				{
					OFFSET -0.002778 0.213870 -0.042857
					CHANNELS 3 Zrotation Yrotation Xrotation
					JOINT Head
					{
						OFFSET 0.005152 0.064970 0.051349
						CHANNELS 3 Zrotation Yrotation Xrotation
						End Site
						{
							OFFSET 0.000000 0.000000 0.000000
						}
					}
				}
				JOINT LeftShoulder
				{
					OFFSET 0.078845 0.121749 -0.034090
					CHANNELS 3 Zrotation Yrotation Xrotation
					JOINT LeftArm
					{
						OFFSET 0.090977 0.030469 -0.008868
						CHANNELS 3 Zrotation Yrotation Xrotation
						JOINT LeftForeArm
						{
							OFFSET 0.259612 -0.012772 -0.027456
							CHANNELS 3 Zrotation Yrotation Xrotation
							JOINT LeftHand
							{
								OFFSET 0.249234 0.008986 -0.001171
								CHANNELS 3 Zrotation Yrotation Xrotation
								End Site
								{
									OFFSET 0.000000 0.000000 0.000000
								}
							}
						}
					}
				}
				JOINT RightShoulder
				{
					OFFSET -0.081759 0.118833 -0.038615
					CHANNELS 3 Zrotation Yrotation Xrotation
					JOINT RightArm
					{
						OFFSET -0.096012 0.032551 -0.009143
						CHANNELS 3 Zrotation Yrotation Xrotation
						JOINT RightForeArm
						{
							OFFSET -0.253742 -0.013329 -0.021401
							CHANNELS 3 Zrotation Yrotation Xrotation
							JOINT RightHand
							{
								OFFSET -0.255298 0.007772 -0.005559
								CHANNELS 3 Zrotation Yrotation Xrotation
								End Site
								{
									OFFSET 0.000000 0.000000 0.000000
								}
							}
						}
					}
				}
			}
		}
	}
}
MOTION
Frames: 5
Frame Time: 0.050000
1.317630 0.860476 4.537627 -2.944329 -4.360895 -8.182837 7.000231 -0.574175 -35.958163 -9.150327 3.900133 42.532885 6.333012 13.873241 8.196499 0.000000 0.000000 0.000000 9.001905 7.744805 -38.694909 -1.407081 2.654920 36.474386 0.550062 -2.681919 8.021362 0.000000 0.000000 0.000000 4.093599 -2.326892 36.818378 4.672282 -1.988641 -5.937180 -2.352963 5.589283 2.600853 5.658853 -2.174776 -13.842260 0.000000 0.000000 0.000000 -8.516444 -13.149710 4.028116 -47.942824 -26.466203 4.952116 116.216842 -62.549540 -87.091159 0.000000 0.000000 0.000000 15.972201 8.258165 3.568830 51.810350 24.583431 5.583805 175.988440 77.269252 -177.753462 0.000000 0.000000 0.000000 
1.360552 0.849103 4.631181 -2.528326 -4.010300 -6.807392 9.742437 0.405173 -41.295656 -6.847425 2.122387 34.019876 3.744735 11.165657 17.348892 0.000000 0.000000 0.000000 7.569627 7.716277 -41.221602 -0.316653 1.925428 33.584126 1.733783 -1.847946 11.647049 0.000000 0.000000 0.000000 3.018273 -2.400717 44.400751 3.380122 -1.173770 -10.061108 -2.515095 7.494217 3.047326 8.227759 -3.139165 -16.660746 0.000000 0.000000 0.000000 -11.170638 -17.246901 5.443535 -39.943085 -28.660745 4.724150 106.979308 -58.376769 -73.723598 0.000000 0.000000 0.000000 17.532911 11.034532 5.663211 49.496628 31.289393 8.002356 -158.364578 80.085371 -146.195145 0.000000 0.000000 0.000000 
1.399942 0.833837 4.717896 -2.481111 -3.882532 -4.709310 12.198782 1.449923 -44.087783 0.365005 -0.574552 16.404320 -4.557958 4.541618 34.024927 0.000000 0.000000 0.000000 6.287127 8.069257 -45.440796 -0.308089 2.184294 37.484814 2.499922 -1.445624 14.191342 0.000000 0.000000 0.000000 3.172287 -2.761147 49.599744 0.363435 0.050737 -10.621718 -0.971461 7.631293 2.508936 7.747982 -2.782605 -16.836096 0.000000 0.000000 0.000000 -10.862268 -18.273325 5.943584 -38.880200 -31.167924 5.388112 102.646595 -54.589086 -65.171038 0.000000 0.000000 0.000000 13.655025 13.261109 6.363360 49.695210 35.961500 10.517658 -125.190304 79.076020 -107.864522 0.000000 0.000000 0.000000 
1.436888 0.809661 4.799684 -1.798741 -5.170320 -3.925207 15.183787 3.062975 -44.633757 3.069979 -0.774334 7.339197 -11.291556 -0.029498 41.951366 0.000000 0.000000 0.000000 4.644476 8.657741 -50.194152 -0.563271 3.477338 49.058834 1.002326 -3.042593 11.003940 0.000000 0.000000 0.000000 2.330840 -2.213946 55.028472 -0.762052 0.474716 -11.965227 -2.434726 7.143616 3.605712 9.858052 -3.185727 -21.954747 0.000000 0.000000 0.000000 -8.522142 -19.129666 6.406160 -35.225767 -33.624800 5.206777 97.086957 -47.668570 -52.543628 0.000000 0.000000 0.000000 13.955356 16.194918 7.827949 46.277407 39.708644 11.065377 -121.769840 72.841055 -97.761800 0.000000 0.000000 0.000000 
1.470163 0.783118 4.873614 -1.557546 -7.000159 -3.456196 16.561428 4.400541 -46.890682 3.101502 -0.999768 11.816680 -12.463963 -2.623835 38.727391 0.000000 0.000000 0.000000 2.695547 9.052203 -54.105881 1.590078 3.368399 59.080068 -0.520227 -3.814428 5.094866 0.000000 0.000000 0.000000 1.056762 -1.024557 60.223161 0.291074 0.092121 -13.795605 -4.220337 7.437614 4.420902 9.973102 -3.043563 -22.936991 0.000000 0.000000 0.000000 -7.860494 -20.200919 6.789424 -30.408492 -33.965865 4.247050 95.125978 -40.773240 -44.126823 0.000000 0.000000 0.000000 15.237294 17.937516 9.079685 41.023111 43.317581 10.666353 -120.599783 67.099826 -89.825913 0.000000 0.000000 0.000000 
